<?xml version="1.0" encoding="UTF-8" standalone="no"?>
<svg
   xmlns:dc="http://purl.org/dc/elements/1.1/"
   xmlns:cc="http://creativecommons.org/ns#"
   xmlns:rdf="http://www.w3.org/1999/02/22-rdf-syntax-ns#"
   xmlns:svg="http://www.w3.org/2000/svg"
   xmlns="http://www.w3.org/2000/svg"
   xmlns:sodipodi="http://sodipodi.sourceforge.net/DTD/sodipodi-0.dtd"
   xmlns:inkscape="http://www.inkscape.org/namespaces/inkscape"
   id="svg2"
   viewBox="0 0 1111.3 1168.6"
   version="1.0"
   sodipodi:docname="secured_wifi3.svg"
   inkscape:version="1.0.1 (c497b03c, 2020-09-10)">
  <defs
     id="defs847">
    <style
       id="style6"
       type="text/css">
    .fil0 {fill:black}
  </style>
  </defs>
  <metadata
     id="metadata842">
    <rdf:RDF>
      <cc:Work>
        <dc:format>image/svg+xml</dc:format>
        <dc:type
           rdf:resource="http://purl.org/dc/dcmitype/StillImage" />
        <cc:license
           rdf:resource="http://creativecommons.org/licenses/publicdomain/" />
      </cc:Work>
    </rdf:RDF>
  </metadata>
  <g
     style="clip-rule:evenodd;fill:none;fill-rule:evenodd;stroke:#ffffff;stroke-width:0.538361;stroke-miterlimit:3;stroke-dasharray:none;stroke-opacity:1;image-rendering:optimizeQuality;shape-rendering:geometricPrecision;text-rendering:geometricPrecision"
     id="g860"
     transform="matrix(134.97657,0,0,116.35219,-11.426386,-61.310231)">
    <g
       id="Layer_x0020_1"
       style="fill:none;stroke:#ffffff;stroke-width:0.538361;stroke-miterlimit:3;stroke-dasharray:none;stroke-opacity:1">
  <path
   id="path10"
   sodipodi:nodetypes="ccccc"
   style="fill:none;stroke:#ffffff;stroke-width:0.538361;stroke-miterlimit:3;stroke-dasharray:none;stroke-opacity:1"
   d="M 4.25,1.3382 0.4955,2.4662 C 0.58759,5.2588 1.2884,8.6655 4.25,9.6618 7.2442,8.694 7.8774,5.2291 8.0045,2.4662 Z" />

 </g>
  </g>
  <g
     id="layer1"
     transform="matrix(8.0223155,0,0,8.8924722,185.92981,-8396.3158)"
     style="fill:#ffffff;fill-opacity:1;stroke:none;stroke-opacity:1">
    <g
       id="g2988"
       transform="matrix(1.3833,0,0,1.3902,-17.517,-392.14)"
       fill="#404040"
       style="fill:#ffffff;fill-opacity:1;stroke:none;stroke-opacity:1">
      <path
         id="path2921"
         d="m 77,997.98 c -7.6659,-8.377 -18.484,-13.616 -30.48,-13.616 -11.496,0 -21.925,4.7811 -29.52,12.554 l 1.7637,1.8348 c 7.147,-7.3038 16.946,-11.813 27.757,-11.813 11.319,0 21.498,4.956 28.716,12.876 l 1.763,-1.83 z m -6.9933,7.2748 c -5.8715,-6.5148 -14.224,-10.59 -23.486,-10.59 -8.7616,0 -16.693,3.6518 -22.496,9.5602 l 1.7328,1.8025 c 5.3553,-5.4434 12.684,-8.7876 20.763,-8.7876 8.5761,0 16.3,3.8036 21.723,9.8498 l 1.7638,-1.8347 z m -6.9933,7.2747 c -4.075,-4.6546 -9.9642,-7.5644 -16.493,-7.5644 -6.0269,0 -11.492,2.4902 -15.503,6.5343 l 1.7328,1.8026 c 3.5626,-3.5785 8.4266,-5.7618 13.77,-5.7618 5.8455,0 11.104,2.6341 14.729,6.824 l 1.7638,-1.8026 v -0.032 z"
         style="fill:#ffffff;fill-opacity:1;stroke:none;stroke-opacity:1" />
      <path
         id="path2927"
         transform="matrix(0,0.9,-0.9,0,79.4,980.36)"
         d="m 50,36 c 0,2.7614 -2.2386,5 -5,5 -2.7614,0 -5,-2.2386 -5,-5 0,-2.7614 2.2386,-5 5,-5 2.7614,0 5,2.2386 5,5 z"
         style="fill:#ffffff;fill-opacity:1;stroke:none;stroke-opacity:1" />
    </g>
  </g>
</svg>
